<svg width="18" height="18" viewBox="0 0 18 18" fill="none" xmlns="http://www.w3.org/2000/svg">
<path d="M6.25176 5.83211V4.53754C6.73975 4.36501 7.15105 4.02551 7.41294 3.57906C7.67484 3.13261 7.77047 2.60795 7.68295 2.0978C7.59542 1.58766 7.33036 1.12488 6.93463 0.791258C6.53889 0.457638 6.03796 0.274658 5.52036 0.274658C5.00276 0.274658 4.50183 0.457638 4.10609 0.791258C3.71036 1.12488 3.4453 1.58766 3.35778 2.0978C3.27025 2.60795 3.36588 3.13261 3.62778 3.57906C3.88968 4.02551 4.30097 4.36501 4.78897 4.53754V6.13491C4.78901 6.32887 4.86609 6.51487 5.00326 6.652L6.98315 8.63189V17.1058C6.98315 17.2998 7.06021 17.4858 7.19737 17.623C7.33453 17.7602 7.52057 17.8372 7.71455 17.8372C7.90852 17.8372 8.09456 17.7602 8.23172 17.623C8.36888 17.4858 8.44594 17.2998 8.44594 17.1058V8.32909C8.4459 8.13513 8.36881 7.94913 8.23164 7.81199L6.25176 5.83211Z" fill="#6997FF"/>
<path d="M3.32597 12.4146V11.1201C3.81397 10.9475 4.22526 10.608 4.48716 10.1616C4.74906 9.71513 4.84469 9.19047 4.75716 8.68032C4.66964 8.17018 4.40458 7.7074 4.00885 7.37378C3.61311 7.04016 3.11218 6.85718 2.59458 6.85718C2.07698 6.85718 1.57605 7.04016 1.18031 7.37378C0.784576 7.7074 0.519522 8.17018 0.431995 8.68032C0.344468 9.19047 0.440104 9.71513 0.701999 10.1616C0.963895 10.608 1.37519 10.9475 1.86318 11.1201V12.7174C1.86323 12.9114 1.94031 13.0974 2.07748 13.2345L4.05737 15.2144V17.1058C4.05737 17.2998 4.13443 17.4858 4.27159 17.623C4.40875 17.7601 4.59479 17.8372 4.78876 17.8372C4.98274 17.8372 5.16878 17.7601 5.30594 17.623C5.4431 17.4858 5.52016 17.2998 5.52016 17.1058V14.9116C5.52012 14.7176 5.44303 14.5316 5.30586 14.3945L3.32597 12.4146Z" fill="#6997FF"/>
<path d="M13.5652 6.13491V4.53754C14.0532 4.36501 14.4645 4.02551 14.7264 3.57906C14.9883 3.13261 15.0839 2.60795 14.9964 2.0978C14.9088 1.58766 14.6438 1.12488 14.2481 0.791258C13.8523 0.457638 13.3514 0.274658 12.8338 0.274658C12.3162 0.274658 11.8152 0.457638 11.4195 0.791258C11.0238 1.12488 10.7587 1.58766 10.6712 2.0978C10.5837 2.60795 10.6793 3.13261 10.9412 3.57906C11.2031 4.02551 11.6144 4.36501 12.1024 4.53754V5.83211L10.1225 7.81199C9.98533 7.94913 9.90824 8.13513 9.9082 8.32909V17.1058C9.9082 17.2998 9.98526 17.4858 10.1224 17.623C10.2596 17.7602 10.4456 17.8372 10.6396 17.8372C10.8336 17.8372 11.0196 17.7602 11.1568 17.623C11.2939 17.4858 11.371 17.2998 11.371 17.1058V8.63189L13.3509 6.652C13.4881 6.51487 13.5651 6.32887 13.5652 6.13491Z" fill="#6997FF"/>
<path d="M17.9537 9.06045C17.9554 8.6578 17.8463 8.26246 17.6382 7.91771C17.4302 7.57297 17.1313 7.29212 16.7743 7.10591C16.4173 6.9197 16.0159 6.83532 15.6142 6.862C15.2124 6.88869 14.8257 7.02541 14.4965 7.2572C14.1672 7.48898 13.9081 7.8069 13.7475 8.17613C13.5869 8.54535 13.531 8.95166 13.5859 9.35055C13.6408 9.74944 13.8044 10.1255 14.0588 10.4376C14.3132 10.7497 14.6485 10.9858 15.0282 11.1201V12.4146L13.0483 14.3945C12.9111 14.5316 12.834 14.7176 12.834 14.9116V17.1058C12.834 17.2998 12.911 17.4858 13.0482 17.623C13.1854 17.7601 13.3714 17.8372 13.5654 17.8372C13.7594 17.8372 13.9454 17.7601 14.0826 17.623C14.2197 17.4858 14.2968 17.2998 14.2968 17.1058V15.2144L16.2767 13.2345C16.4138 13.0974 16.4909 12.9114 16.491 12.7174V11.1201C16.9173 10.9693 17.2866 10.6906 17.5485 10.3219C17.8103 9.95321 17.9519 9.51264 17.9537 9.06045Z" fill="#6997FF"/>
</svg>
