<svg width="154" height="154" viewBox="0 0 154 154" fill="none" xmlns="http://www.w3.org/2000/svg">
<path d="M77.4154 153.932C119.675 153.932 153.932 119.675 153.932 77.4154C153.932 35.1562 119.675 0.898438 77.4154 0.898438C35.1562 0.898438 0.898438 35.1562 0.898438 77.4154C0.898438 119.675 35.1562 153.932 77.4154 153.932Z" fill="#E6F7FF"/>
<path d="M83.6289 79.4814H71.2026C70.9308 79.4814 70.6616 79.535 70.4105 79.639C70.1594 79.743 69.9312 79.8955 69.739 80.0877C69.5468 80.2799 69.3944 80.508 69.2904 80.7592C69.1864 81.0103 69.1328 81.2794 69.1328 81.5512V108.47C69.1328 108.742 69.1864 109.011 69.2904 109.262C69.3944 109.513 69.5468 109.741 69.739 109.933C69.9312 110.126 70.1594 110.278 70.4105 110.382C70.6616 110.486 70.9308 110.54 71.2026 110.54H83.6289C84.1779 110.54 84.7043 110.322 85.0925 109.933C85.4807 109.545 85.6987 109.019 85.6987 108.47V81.5512C85.6987 81.0023 85.4807 80.4758 85.0925 80.0877C84.7043 79.6995 84.1779 79.4814 83.6289 79.4814Z" fill="#1890FF"/>
<path d="M58.7803 91.9082H46.354C45.805 91.9082 45.2786 92.1263 44.8904 92.5144C44.5022 92.9026 44.2842 93.429 44.2842 93.978V108.474C44.2842 109.023 44.5022 109.55 44.8904 109.938C45.2786 110.326 45.805 110.544 46.354 110.544H58.7803C59.3293 110.544 59.8557 110.326 60.2439 109.938C60.632 109.55 60.8501 109.023 60.8501 108.474V93.978C60.8501 93.429 60.632 92.9026 60.2439 92.5144C59.8557 92.1263 59.3293 91.9082 58.7803 91.9082Z" fill="#1890FF"/>
<path d="M108.478 67.0586H96.0512C95.7794 67.0586 95.5103 67.1121 95.2592 67.2161C95.008 67.3202 94.7799 67.4726 94.5877 67.6648C94.3955 67.857 94.243 68.0852 94.139 68.3363C94.035 68.5874 93.9814 68.8566 93.9814 69.1284V108.473C93.9814 108.745 94.035 109.014 94.139 109.265C94.243 109.517 94.3955 109.745 94.5877 109.937C94.7799 110.129 95.008 110.282 95.2592 110.386C95.5103 110.49 95.7794 110.543 96.0512 110.543H108.478C109.027 110.543 109.553 110.325 109.941 109.937C110.329 109.549 110.547 109.022 110.547 108.473V69.1284C110.547 68.5794 110.329 68.053 109.941 67.6648C109.553 67.2767 109.027 67.0586 108.478 67.0586Z" fill="#1890FF"/>
<path d="M77.4159 69.1483C77.6882 69.1485 77.9578 69.0948 78.2093 68.9904C78.4607 68.886 78.6891 68.7329 78.8812 68.54L96.0554 51.3505V60.8462H100.199V46.3501C100.199 46.0776 100.145 45.8078 100.041 45.5562C99.9361 45.3046 99.7829 45.0761 99.5899 44.8838C99.3969 44.6915 99.1678 44.5392 98.9158 44.4356C98.6638 44.3321 98.3938 44.2793 98.1214 44.2803H83.6291V48.4237H93.1248L77.4159 64.1326L68.5285 55.2413C68.1403 54.8533 67.6139 54.6353 67.0651 54.6353C66.5162 54.6353 65.9898 54.8533 65.6017 55.2413L55.2451 65.5941L58.1719 68.5209L67.0632 59.6334L75.9544 68.5247C76.1448 68.7199 76.372 68.8756 76.6228 68.9826C76.8737 69.0896 77.1432 69.146 77.4159 69.1483Z" fill="#1890FF"/>
</svg>
