<svg width="1440" height="610" viewBox="0 0 1440 610" fill="none" xmlns="http://www.w3.org/2000/svg">
<g filter="url(#filter0_f_317_2580)">
<path fill-rule="evenodd" clip-rule="evenodd" d="M476.595 304.413C495.786 305.646 514.451 308.622 532.444 313.178C430.117 357.289 355.637 455.903 348.005 574.727C338.407 724.187 437.792 855.464 577.915 890.945C535.005 909.442 487.199 918.355 437.371 915.155C268.719 904.324 140.781 758.824 151.612 590.172C162.443 421.52 307.943 293.582 476.595 304.413ZM710.232 781.629C677.516 829.745 631.539 867.829 577.915 890.945C595.908 895.501 614.573 898.477 633.764 899.71C708.861 904.532 779.367 881.842 835.437 840.294C849.814 843.343 864.589 845.392 879.689 846.362C1048.34 857.193 1193.84 729.255 1204.67 560.603C1215.5 391.951 1087.56 246.452 918.913 235.62C843.817 230.797 773.311 253.488 717.241 295.036C702.863 291.987 688.089 289.938 672.988 288.968C623.161 285.768 575.354 294.681 532.444 313.178C574.625 323.859 613.115 343.221 646.052 369.147C616.338 412.848 597.562 464.824 593.93 521.379C587.221 625.847 633.757 721.431 710.232 781.629ZM646.052 369.147C722.527 429.344 769.063 524.928 762.354 629.396C758.722 685.951 739.946 737.928 710.232 781.629C746.163 809.912 788.704 830.383 835.437 840.294C905.29 788.533 952.739 707.506 958.747 613.951C968.609 460.4 863.438 326.04 717.241 295.036C689.614 315.507 665.492 340.556 646.052 369.147Z" fill="#A7D5FF" fill-opacity="0.5"/>
</g>
<defs>
<filter id="filter0_f_317_2580" x="-83.0283" y="0.980469" width="1522.34" height="1148.81" filterUnits="userSpaceOnUse" color-interpolation-filters="sRGB">
<feFlood flood-opacity="0" result="BackgroundImageFix"/>
<feBlend mode="normal" in="SourceGraphic" in2="BackgroundImageFix" result="shape"/>
<feGaussianBlur stdDeviation="117" result="effect1_foregroundBlur_317_2580"/>
</filter>
</defs>
</svg>
