<svg width="75" height="75" viewBox="0 0 75 75" fill="none" xmlns="http://www.w3.org/2000/svg">
<path fill-rule="evenodd" clip-rule="evenodd" d="M11.1506 10.7792C11.5403 10.3949 11.9391 10.0188 12.3451 9.65171C13.4374 11.0173 15.1202 11.8931 17.0055 11.8931C20.295 11.8931 22.9652 9.22958 22.9652 5.94905C22.9652 4.95236 22.7193 4.01339 22.2843 3.18807C26.5785 1.28218 31.2967 0.156498 36.2573 -0.00585938V8.88682C21.466 9.52272 9.57183 21.3875 8.93435 36.1412H0.0205078C0.177843 31.3598 1.23669 26.803 3.03248 22.6367C4.04159 23.1689 5.19086 23.4701 6.41066 23.4701C10.4091 23.4701 13.6562 20.232 13.6562 16.2434C13.6562 14.0615 12.6851 12.1042 11.1506 10.7792ZM58.2462 68.5613C52.3046 72.5048 45.173 74.804 37.5079 74.804C17.2243 74.804 0.680592 58.7098 0.0205078 38.6361H8.93435C9.58992 53.8039 22.1415 65.9176 37.5079 65.9176C44.9505 65.9176 51.7331 63.0755 56.823 58.4203L58.4804 60.0736C57.5391 61.2931 56.9785 62.8211 56.9785 64.478C56.9785 65.9925 57.4469 67.3996 58.2462 68.5613ZM60.326 58.3869L58.5917 56.6569C62.9952 51.8647 65.7811 45.5697 66.0804 38.6361H74.9952C74.752 46.0261 72.3558 52.8767 68.4133 58.5836C67.2297 57.7447 65.7839 57.2513 64.2232 57.2513C62.7891 57.2513 61.4517 57.668 60.326 58.3869ZM63.1254 10.0702L56.823 16.3571C52.0198 11.9644 45.7083 9.18538 38.7575 8.88682V-0.00585938C48.1659 0.301718 56.7027 4.07382 63.1254 10.0702ZM74.9952 36.1412H66.0804C65.7811 29.2077 62.9952 22.9127 58.5917 18.1205L64.8941 11.8345C70.9054 18.2413 74.686 26.757 74.9952 36.1412ZM37.5079 11.3538C44.701 11.3538 51.2186 14.2636 55.9414 18.9656C55.9468 18.9719 55.9531 18.9773 55.9586 18.9837C55.964 18.9891 55.9703 18.9945 55.9757 18.9999C60.6904 23.7119 63.6065 30.2134 63.6065 37.3887C63.6065 44.564 60.6904 51.0664 55.9757 55.7775C55.9703 55.7829 55.964 55.7883 55.9586 55.7937C55.9531 55.8 55.9468 55.8054 55.9414 55.8118C51.2186 60.5138 44.701 63.4236 37.5079 63.4236C23.1026 63.4236 11.4083 51.7573 11.4083 37.3887C11.4083 23.02 23.1026 11.3538 37.5079 11.3538ZM48.8785 21.2675L42.5272 27.8808C42.3753 27.8493 42.218 27.833 42.057 27.833C41.6076 27.833 41.188 27.9602 40.8309 28.1794L35.2916 25.4545C35.1695 24.2792 34.1685 23.3574 32.9587 23.3574C31.6693 23.3574 30.6159 24.4082 30.6159 25.6971C30.6159 25.8189 30.6249 25.938 30.643 26.0552L24.5377 31.3607C24.3234 31.2958 24.0973 31.2615 23.8631 31.2615C22.5719 31.2615 21.5184 32.3123 21.5184 33.6003C21.5184 34.8884 22.5719 35.9356 23.8631 35.9356C25.1543 35.9356 26.2078 34.8884 26.2078 33.6003C26.2078 33.4777 26.1978 33.3586 26.1797 33.2414L32.286 27.9359C32.4994 27.9999 32.7254 28.0342 32.9587 28.0342C33.4063 28.0342 33.8249 27.9079 34.1812 27.6896L39.7232 30.4163C39.8462 31.5889 40.8472 32.5098 42.057 32.5098C43.3491 32.5098 44.3998 31.459 44.3998 30.1728C44.3998 29.9789 44.3754 29.7895 44.3302 29.6091L50.6815 22.9957C50.8334 23.0264 50.9907 23.0435 51.1517 23.0435C52.4438 23.0435 53.4982 21.9918 53.4982 20.7028C53.4982 19.4139 52.4438 18.3631 51.1517 18.3631C49.8605 18.3631 48.8088 19.4139 48.8088 20.7028C48.8088 20.8977 48.8333 21.0871 48.8785 21.2675ZM21.4127 44.6506V52.4663C21.4127 52.8974 21.7626 53.2456 22.1939 53.2456H25.5323C25.9636 53.2456 26.3136 52.8974 26.3136 52.4663V44.6506C26.3136 44.2203 25.9636 43.8713 25.5323 43.8713H22.1939C21.7626 43.8713 21.4127 44.2203 21.4127 44.6506ZM30.511 36.4046V52.4663C30.511 52.8974 30.8609 53.2456 31.2922 53.2456H34.6279C35.0592 53.2456 35.4091 52.8974 35.4091 52.4663V36.4046C35.4091 35.9744 35.0592 35.6253 34.6279 35.6253H31.2922C30.8609 35.6253 30.511 35.9744 30.511 36.4046ZM39.6057 39.7366V52.4663C39.6057 52.6728 39.6888 52.8713 39.8353 53.0174C39.9818 53.1635 40.1798 53.2456 40.3878 53.2456H43.7226C43.9306 53.2456 44.1286 53.1635 44.2751 53.0174C44.4216 52.8713 44.5047 52.6728 44.5047 52.4663V39.7366C44.5047 39.5291 44.4216 39.3307 44.2751 39.1854C44.1286 39.0384 43.9306 38.9563 43.7226 38.9563H40.3878C40.1798 38.9563 39.9818 39.0384 39.8353 39.1854C39.6888 39.3307 39.6057 39.5291 39.6057 39.7366ZM48.7049 29.9924V52.4663C48.7049 52.8974 49.0539 53.2456 49.4861 53.2456H52.8209C53.2531 53.2456 53.6021 52.8974 53.6021 52.4663V29.9924C53.6021 29.5622 53.2531 29.2131 52.8209 29.2131H49.4861C49.0539 29.2131 48.7049 29.5622 48.7049 29.9924ZM6.41066 11.5107C9.0293 11.5107 11.1551 13.6313 11.1551 16.2434C11.1551 18.8556 9.0293 20.9752 6.41066 20.9752C3.79203 20.9752 1.6662 18.8556 1.6662 16.2434C1.6662 13.6313 3.79203 11.5107 6.41066 11.5107ZM17.0055 2.49805C18.9152 2.49805 20.465 4.04406 20.465 5.94905C20.465 7.85315 18.9152 9.39915 17.0055 9.39915C15.0966 9.39915 13.5468 7.85315 13.5468 5.94905C13.5468 4.04406 15.0966 2.49805 17.0055 2.49805ZM64.2232 59.7453C66.8418 59.7453 68.9676 61.8659 68.9676 64.478C68.9676 67.0902 66.8418 69.2108 64.2232 69.2108C61.6045 69.2108 59.4787 67.0902 59.4787 64.478C59.4787 61.8659 61.6045 59.7453 64.2232 59.7453Z" fill="#3E9D10"/>
</svg>
