<svg width="31" height="21" viewBox="0 0 31 21" fill="none" xmlns="http://www.w3.org/2000/svg">
<path d="M30.4048 9.54484C29.0286 6.78957 26.917 4.46875 24.3036 2.83917C21.6901 1.20959 18.6769 0.334772 15.5971 0.311523C12.5174 0.335035 9.50421 1.20996 6.89085 2.83951C4.27748 4.46907 2.1658 6.78974 0.789367 9.54484C0.670387 9.78032 0.608398 10.0405 0.608398 10.3043C0.608398 10.5681 0.670387 10.8283 0.789367 11.0638C2.16559 13.819 4.27722 16.1398 6.89063 17.7694C9.50404 19.399 12.5173 20.2738 15.5971 20.2971C18.6768 20.2736 21.69 19.3986 24.3033 17.7691C26.9167 16.1395 29.0284 13.8189 30.4048 11.0638C30.5238 10.8283 30.5858 10.5681 30.5858 10.3043C30.5858 10.0405 30.5238 9.78032 30.4048 9.54484ZM15.5971 17.8024C14.1148 17.8024 12.6658 17.3628 11.4333 16.5393C10.2009 15.7158 9.24025 14.5453 8.673 13.1758C8.10576 11.8064 7.95734 10.2995 8.24652 8.84567C8.5357 7.39186 9.24949 6.05645 10.2976 5.00832C11.3458 3.96018 12.6812 3.24639 14.135 2.95721C15.5888 2.66803 17.0957 2.81645 18.4651 3.3837C19.8346 3.95094 21.0051 4.91154 21.8286 6.14402C22.6521 7.3765 23.0917 8.8255 23.0917 10.3078C23.0907 12.2949 22.3007 14.2002 20.8953 15.605C19.4899 17.0098 17.5842 17.7989 15.5971 17.7989V17.8024ZM15.5971 5.3114C15.151 5.31774 14.7077 5.38425 14.2794 5.50911C14.6333 5.98873 14.8035 6.5794 14.7589 7.17382C14.7144 7.76823 14.4581 8.32694 14.0366 8.74843C13.6151 9.16993 13.0564 9.42623 12.462 9.47079C11.8675 9.51534 11.2769 9.34519 10.7973 8.99123C10.5241 9.9975 10.5733 11.0641 10.938 12.0409C11.3027 13.0178 11.9646 13.8556 12.8304 14.4366C13.6963 15.0176 14.7225 15.3124 15.7647 15.2796C16.8069 15.2468 17.8125 14.888 18.6401 14.2537C19.4677 13.6194 20.0756 12.7416 20.3781 11.7438C20.6807 10.7459 20.6628 9.67836 20.3268 8.69126C19.9909 7.70417 19.3538 6.84727 18.5054 6.24118C17.6569 5.63508 16.6398 5.31031 15.5971 5.31256V5.3114Z" fill="#52C41A"/>
</svg>
