<svg width="152" height="152" viewBox="0 0 152 152" fill="none" xmlns="http://www.w3.org/2000/svg">
<path d="M76.3492 151.631C118.02 151.631 151.8 117.851 151.8 76.1803C151.8 34.51 118.02 0.729492 76.3492 0.729492C34.6789 0.729492 0.898438 34.51 0.898438 76.1803C0.898438 117.851 34.6789 151.631 76.3492 151.631Z" fill="#F6FFED"/>
<path d="M78.2836 46H74.4092V75.0486H68.5957V78.9418H74.4092V107.99H78.2836V96.3823H84.0971V92.5079H78.2836V61.5014H84.0971V57.627H78.2836V46Z" fill="#52C41A"/>
<path d="M102.756 50.5996H91.4386C89.355 50.5996 87.666 52.2886 87.666 54.3721V65.6898C87.666 67.7733 89.355 69.4623 91.4386 69.4623H102.756C104.84 69.4623 106.529 67.7733 106.529 65.6898V54.3721C106.529 52.2886 104.84 50.5996 102.756 50.5996Z" fill="#52C41A"/>
<path d="M102.756 84.5508H91.4386C89.355 84.5508 87.666 86.2398 87.666 88.3233V99.6409C87.666 101.724 89.355 103.413 91.4386 103.413H102.756C104.84 103.413 106.529 101.724 106.529 99.6409V88.3233C106.529 86.2398 104.84 84.5508 102.756 84.5508Z" fill="#52C41A"/>
<path d="M61.2581 65.6924H49.9405C47.857 65.6924 46.168 67.3814 46.168 69.4649V84.5551C46.168 86.6386 47.857 88.3276 49.9405 88.3276H61.2581C63.3416 88.3276 65.0307 86.6386 65.0307 84.5551V69.4649C65.0307 67.3814 63.3416 65.6924 61.2581 65.6924Z" fill="#52C41A"/>
</svg>
