<svg width="29" height="29" viewBox="0 0 29 29" fill="none" xmlns="http://www.w3.org/2000/svg">
<circle cx="14.4863" cy="14.4863" r="14.4863" fill="#DBE2FF"/>
<path d="M22.2129 10.0685C21.6801 10.2948 21.1004 10.4577 20.5033 10.5211C21.1232 10.1584 21.5875 9.58542 21.809 8.90962C21.2272 9.25042 20.5899 9.48939 19.9253 9.61594C19.6475 9.32351 19.3115 9.09056 18.9383 8.93158C18.5651 8.7726 18.1627 8.69102 17.7561 8.6919C16.1109 8.6919 14.7878 10.0051 14.7878 11.6166C14.7878 11.8429 14.8156 12.0692 14.8609 12.2869C12.3975 12.16 10.2004 11.0011 8.73979 9.22678C8.47364 9.67442 8.33417 10.1841 8.33589 10.7028C8.33589 11.7177 8.85991 12.6126 9.659 13.1389C9.18808 13.1207 8.7282 12.9932 8.31674 12.7669V12.8029C8.31674 14.2241 9.33693 15.4019 10.6966 15.6728C10.4413 15.7381 10.1787 15.7715 9.91492 15.7722C9.72167 15.7722 9.53887 15.7533 9.35433 15.7276C9.73038 16.8865 10.8254 17.7283 12.1294 17.7557C11.1092 18.5426 9.83135 19.0055 8.44383 19.0055C8.19487 19.0055 7.96507 18.9969 7.72656 18.9695C9.04271 19.8009 10.6043 20.2809 12.2861 20.2809C17.7456 20.2809 20.7331 15.827 20.7331 11.9612C20.7331 11.8343 20.7331 11.7075 20.7244 11.5806C21.3024 11.164 21.809 10.648 22.2129 10.0685Z" fill="#1C2135"/>
</svg>
