<svg width="30" height="29" viewBox="0 0 30 29" fill="none" xmlns="http://www.w3.org/2000/svg">
<circle cx="14.6367" cy="14.4863" r="14.4863" fill="#DBE2FF"/>
<path fill-rule="evenodd" clip-rule="evenodd" d="M12.133 6.80371C12.9054 6.76816 13.1516 6.76025 15.1191 6.76025C17.0866 6.76025 17.3329 6.76881 18.1046 6.80371C18.8763 6.83861 19.4031 6.96175 19.864 7.14019C20.3467 7.32259 20.7846 7.6077 21.1467 7.97644C21.5155 8.33794 21.7999 8.77517 21.9817 9.25848C22.1608 9.71941 22.2833 10.2462 22.3188 11.0166C22.3544 11.7903 22.3623 12.0366 22.3623 14.0034C22.3623 15.9709 22.3537 16.2172 22.3188 16.9896C22.2839 17.76 22.1608 18.2867 21.9817 18.7477C21.7999 19.231 21.515 19.669 21.1467 20.031C20.7846 20.3998 20.3467 20.6842 19.864 20.866C19.4031 21.0451 18.8763 21.1675 18.1059 21.2031C17.3329 21.2387 17.0866 21.2466 15.1191 21.2466C13.1516 21.2466 12.9054 21.238 12.133 21.2031C11.3626 21.1682 10.8358 21.0451 10.3749 20.866C9.8915 20.6842 9.45355 20.3993 9.09151 20.031C8.72302 19.6693 8.43786 19.2316 8.25591 18.7483C8.07747 18.2874 7.95499 17.7606 7.91944 16.9902C7.88388 16.2165 7.87598 15.9702 7.87598 14.0034C7.87598 12.0359 7.88454 11.7896 7.91944 11.0179C7.95433 10.2462 8.07747 9.71941 8.25591 9.25848C8.43813 8.77522 8.7235 8.33749 9.09217 7.97579C9.45369 7.60737 9.8912 7.32222 10.3742 7.14019C10.8351 6.96175 11.3619 6.83927 12.1323 6.80371H12.133ZM18.046 8.10748C17.2822 8.07258 17.053 8.06534 15.1191 8.06534C13.1852 8.06534 12.9561 8.07258 12.1922 8.10748C11.4857 8.13974 11.1025 8.25761 10.847 8.35704C10.5092 8.48873 10.2675 8.64479 10.014 8.8983C9.77371 9.13209 9.58877 9.4167 9.47276 9.73126C9.37333 9.98675 9.25547 10.37 9.2232 11.0765C9.1883 11.8403 9.18106 12.0695 9.18106 14.0034C9.18106 15.9373 9.1883 16.1665 9.2232 16.9303C9.25547 17.6368 9.37333 18.0201 9.47276 18.2755C9.58865 18.5896 9.77368 18.8748 10.014 19.1085C10.2478 19.3489 10.5329 19.5339 10.847 19.6498C11.1025 19.7492 11.4857 19.8671 12.1922 19.8993C12.9561 19.9342 13.1845 19.9415 15.1191 19.9415C17.0537 19.9415 17.2822 19.9342 18.046 19.8993C18.7526 19.8671 19.1358 19.7492 19.3913 19.6498C19.7291 19.5181 19.9707 19.362 20.2242 19.1085C20.4646 18.8748 20.6496 18.5896 20.7655 18.2755C20.8649 18.0201 20.9828 17.6368 21.0151 16.9303C21.05 16.1665 21.0572 15.9373 21.0572 14.0034C21.0572 12.0695 21.05 11.8403 21.0151 11.0765C20.9828 10.37 20.8649 9.98675 20.7655 9.73126C20.6338 9.39347 20.4777 9.15181 20.2242 8.8983C19.9904 8.65801 19.7058 8.47307 19.3913 8.35704C19.1358 8.25761 18.7526 8.13974 18.046 8.10748ZM14.194 16.2363C14.7107 16.4513 15.286 16.4804 15.8217 16.3184C16.3574 16.1564 16.8202 15.8135 17.1311 15.3482C17.4421 14.8828 17.5818 14.324 17.5265 13.7671C17.4712 13.2102 17.2243 12.6897 16.8279 12.2947C16.5752 12.0421 16.2696 11.8488 15.9332 11.7285C15.5968 11.6082 15.2379 11.564 14.8824 11.5991C14.5269 11.6342 14.1835 11.7476 13.8771 11.9313C13.5707 12.115 13.3088 12.3643 13.1103 12.6613C12.9119 12.9584 12.7817 13.2957 12.7292 13.6491C12.6768 14.0025 12.7033 14.3631 12.8069 14.705C12.9106 15.0469 13.0887 15.3616 13.3286 15.6263C13.5684 15.8911 13.864 16.0994 14.194 16.2363ZM12.4866 11.3708C12.8323 11.0251 13.2427 10.7509 13.6944 10.5638C14.1461 10.3767 14.6302 10.2804 15.1191 10.2804C15.608 10.2804 16.0922 10.3767 16.5439 10.5638C16.9956 10.7509 17.406 11.0251 17.7517 11.3708C18.0974 11.7166 18.3716 12.127 18.5587 12.5787C18.7458 13.0304 18.8421 13.5145 18.8421 14.0034C18.8421 14.4923 18.7458 14.9764 18.5587 15.4281C18.3716 15.8798 18.0974 16.2902 17.7517 16.636C17.0535 17.3342 16.1065 17.7264 15.1191 17.7264C14.1317 17.7264 13.1848 17.3342 12.4866 16.636C11.7884 15.9378 11.3961 14.9908 11.3961 14.0034C11.3961 13.016 11.7884 12.069 12.4866 11.3708ZM19.6678 10.8349C19.7535 10.754 19.8221 10.6569 19.8695 10.5491C19.917 10.4413 19.9423 10.325 19.944 10.2073C19.9457 10.0895 19.9238 9.97262 19.8795 9.86349C19.8352 9.75436 19.7695 9.65522 19.6862 9.57194C19.603 9.48866 19.5038 9.42294 19.3947 9.37866C19.2856 9.33439 19.1686 9.31246 19.0509 9.31418C18.9331 9.31589 18.8169 9.34122 18.7091 9.38866C18.6013 9.4361 18.5041 9.50468 18.4233 9.59035C18.2662 9.75696 18.1801 9.97827 18.1834 10.2073C18.1868 10.4363 18.2792 10.655 18.4412 10.817C18.6032 10.9789 18.8219 11.0714 19.0509 11.0747C19.2799 11.0781 19.5012 10.992 19.6678 10.8349Z" fill="#1C2135"/>
</svg>
