<svg width="30" height="29" viewBox="0 0 30 29" fill="none" xmlns="http://www.w3.org/2000/svg">
<circle cx="14.7881" cy="14.4863" r="14.4863" fill="#DBE2FF"/>
<path d="M20.2919 10.4586C19.3526 10.0816 18.3614 9.81247 17.3431 9.65802C17.3338 9.65666 17.3244 9.65784 17.3159 9.66138C17.3075 9.66493 17.3005 9.67067 17.296 9.67782C17.1683 9.87578 17.0271 10.1347 16.9284 10.3374C15.8307 10.1917 14.7142 10.1917 13.6165 10.3374C13.5064 10.1116 13.3819 9.89139 13.2435 9.67782C13.2388 9.67075 13.2319 9.66507 13.2235 9.66154C13.2151 9.658 13.2056 9.65678 13.1964 9.65802C12.1778 9.81164 11.1865 10.0809 10.2476 10.4586C10.2395 10.4613 10.2328 10.4663 10.2286 10.4728C8.35079 12.9268 7.83563 15.3206 8.08823 17.6843C8.08913 17.6954 8.09728 17.7065 8.10724 17.7136C9.2007 18.422 10.4238 18.9629 11.7243 19.3132C11.7334 19.3157 11.7433 19.3156 11.7524 19.3129C11.7615 19.3102 11.7694 19.305 11.775 19.2981C12.0538 18.9655 12.3019 18.6147 12.5156 18.2457C12.52 18.2381 12.5215 18.2295 12.5199 18.2211C12.5183 18.2126 12.5136 18.2049 12.5065 18.199C12.5018 18.1952 12.4963 18.1922 12.4902 18.1903C12.1001 18.0592 11.7223 17.9017 11.3603 17.7192C11.3502 17.7141 11.3427 17.7059 11.3393 17.6962C11.3359 17.6865 11.3369 17.676 11.3422 17.6669C11.3453 17.661 11.3499 17.6558 11.3558 17.6518C11.4318 17.602 11.5079 17.5497 11.5803 17.4974C11.5867 17.4929 11.5944 17.49 11.6025 17.4891C11.6106 17.4881 11.6189 17.4891 11.6265 17.4919C13.9977 18.439 16.5644 18.439 18.9067 17.4919C18.9145 17.4889 18.9231 17.4879 18.9315 17.4889C18.94 17.4898 18.948 17.4928 18.9547 17.4974C19.0271 17.5497 19.1031 17.602 19.1792 17.6518C19.1854 17.6558 19.1903 17.661 19.1936 17.667C19.1969 17.673 19.1984 17.6797 19.1981 17.6864C19.1977 17.693 19.1955 17.6995 19.1915 17.7052C19.1876 17.711 19.1821 17.7157 19.1756 17.7192C18.8143 17.9033 18.4361 18.0607 18.0447 18.1895C18.0385 18.1915 18.0328 18.1946 18.0281 18.1988C18.0234 18.2029 18.0198 18.2078 18.0176 18.2133C18.0155 18.2186 18.0146 18.2242 18.0151 18.2298C18.0156 18.2353 18.0173 18.2408 18.0203 18.2457C18.2376 18.614 18.4866 18.9655 18.76 19.2981C18.7655 19.305 18.7734 19.3102 18.7825 19.3129C18.7916 19.3156 18.8015 19.3157 18.8107 19.3132C20.1134 18.964 21.3384 18.423 22.4331 17.7136C22.4386 17.7103 22.4432 17.7059 22.4465 17.7009C22.4498 17.6958 22.4517 17.6901 22.4522 17.6843C22.7545 14.9516 21.946 12.5776 20.31 10.4736C20.3084 10.4702 20.3059 10.467 20.3028 10.4644C20.2997 10.4618 20.296 10.4599 20.2919 10.4586ZM12.8696 16.2447C12.1552 16.2447 11.5676 15.6714 11.5676 14.9682C11.5676 14.2643 12.1444 13.691 12.8696 13.691C13.6002 13.691 14.1824 14.269 14.1715 14.9682C14.1715 15.6714 13.5948 16.2447 12.8696 16.2447ZM17.6826 16.2447C16.9691 16.2447 16.3806 15.6714 16.3806 14.9682C16.3806 14.2643 16.9574 13.691 17.6826 13.691C18.4132 13.691 18.9963 14.269 18.9845 14.9682C18.9845 15.6714 18.4132 16.2447 17.6826 16.2447Z" fill="#1C2135"/>
</svg>
