<svg width="49" height="48" viewBox="0 0 49 48" fill="none" xmlns="http://www.w3.org/2000/svg">
<g clip-path="url(#clip0_317_2286)">
<path d="M42.7705 11.6914C42.7705 12.1574 43.1529 12.5352 43.6247 12.5352H44.4788C44.9506 12.5352 45.333 12.1574 45.333 11.6914C45.333 11.2254 44.9506 10.8477 44.4788 10.8477H43.6247C43.1529 10.8477 42.7705 11.2254 42.7705 11.6914Z" fill="#8E8E93"/>
<path d="M17.9997 37.8477H22.1491L20.9411 36.6544C20.6207 36.338 20.1862 36.1602 19.7332 36.1602H17.9997C11.3953 36.1602 6.04134 30.8715 6.04134 24.3477C6.04134 17.8238 11.3953 12.5352 17.9997 12.5352H31.6663C38.2708 12.5352 43.6247 17.8238 43.6247 24.3477C43.6247 30.8715 38.2708 36.1602 31.6663 36.1602H26.5539C25.8743 36.1602 25.2225 35.8935 24.7419 35.4188L23.3267 34.0208C22.5258 33.2296 21.4394 32.7852 20.3067 32.7852H17.9997C13.2822 32.7852 9.45801 29.0076 9.45801 24.3477C9.45801 19.6877 13.2822 15.9102 17.9997 15.9102H31.6663C36.3838 15.9102 40.208 19.6877 40.208 24.3477C40.208 29.0076 36.3838 32.7852 31.6663 32.7852H28.3837C27.704 32.7852 27.0523 32.5185 26.5717 32.0438L25.1564 30.6458C24.3555 29.8546 23.2692 29.4102 22.1365 29.4102H17.9997C15.1692 29.4102 12.8747 27.1436 12.8747 24.3477C12.8747 21.5517 15.1692 19.2852 17.9997 19.2852H31.6663C34.4968 19.2852 36.7913 21.5517 36.7913 24.3477C36.7913 27.1095 34.5524 29.3548 31.7697 29.4091L31.7691 29.4102H30.5191C29.8394 29.4102 29.1877 29.1435 28.7071 28.6688L27.2918 27.2708C26.6347 26.6216 25.7854 26.2059 24.8759 26.0775L24.833 26.0352H17.9997C17.0562 26.0352 16.2913 25.2796 16.2913 24.3477C16.2913 23.4157 17.0562 22.6602 17.9997 22.6602H31.6663C32.6098 22.6602 33.3747 23.4157 33.3747 24.3477C33.3747 25.2796 32.6098 26.0352 31.6663 26.0352H28.2497L29.4577 27.2284C29.778 27.5449 30.2125 27.7227 30.6656 27.7227H31.6663C33.5533 27.7227 35.083 26.2116 35.083 24.3477C35.083 22.4837 33.5533 20.9727 31.6663 20.9727H17.9997C16.1127 20.9727 14.583 22.4837 14.583 24.3477C14.583 26.2116 16.1127 27.7227 17.9997 27.7227H24.2719C24.9516 27.7227 25.6033 27.9893 26.0839 28.464L27.4992 29.862C28.3001 30.6532 29.3864 31.0977 30.5191 31.0977H32.0934V31.0847C35.6684 30.8669 38.4997 27.9339 38.4997 24.3477C38.4997 20.6198 35.4403 17.5977 31.6663 17.5977H17.9997C14.2258 17.5977 11.1663 20.6198 11.1663 24.3477C11.1663 28.0756 14.2258 31.0977 17.9997 31.0977H22.1365C22.8161 31.0977 23.4679 31.3643 23.9485 31.839L25.3638 33.237C26.1647 34.0282 27.251 34.4727 28.3837 34.4727H31.6663C37.3273 34.4727 41.9163 29.9396 41.9163 24.3477C41.9163 18.7558 37.3273 14.2227 31.6663 14.2227H17.9997C12.3387 14.2227 7.74967 18.7558 7.74967 24.3477C7.74967 29.9396 12.3387 34.4727 17.9997 34.4727H20.3067C20.9864 34.4727 21.6382 34.7393 22.1187 35.214L23.534 36.612C24.3349 37.4032 25.4212 37.8477 26.5539 37.8477H31.6663C39.2142 37.8477 45.333 31.8035 45.333 24.3477C45.333 16.8918 39.2142 10.8477 31.6663 10.8477L17.9997 10.8477C10.4518 10.8477 4.33301 16.8918 4.33301 24.3477C4.33301 31.8035 10.4518 37.8477 17.9997 37.8477Z" fill="#8E8E93"/>
</g>
<defs>
<clipPath id="clip0_317_2286">
<rect width="41" height="27" fill="white" transform="translate(4.33301 10.8477)"/>
</clipPath>
</defs>
</svg>
