<svg width="48" height="48" viewBox="0 0 48 48" fill="none" xmlns="http://www.w3.org/2000/svg">
<g clip-path="url(#clip0_317_2270)">
<path d="M44.9963 13.413C44.9963 13.4468 44.9963 13.4891 44.9875 13.5144C44.9434 13.8441 44.9434 14.1738 44.9698 14.5119C44.9875 14.5965 45.0051 14.681 45.0756 14.7486C45.19 14.8754 45.3662 14.8501 45.4367 14.6979C45.4719 14.6218 45.4719 14.5457 45.4543 14.4697C45.3662 14.1484 45.3486 13.8103 45.3398 13.4806C45.3398 13.4637 45.3398 13.4383 45.3398 13.413C45.4367 13.4045 45.5248 13.3961 45.604 13.3961C45.6657 13.3876 45.7185 13.3792 45.7626 13.3538C45.8946 13.2862 45.8946 13.1425 45.7537 13.0748C45.7009 13.0495 45.6304 13.041 45.5688 13.041C45.3486 13.0495 45.1284 13.0495 44.9082 13.0495C44.829 13.0495 44.7497 13.0579 44.6704 13.0664C44.6263 13.0748 44.5735 13.0748 44.5383 13.1002C44.4766 13.1256 44.4414 13.1678 44.4414 13.227C44.4502 13.2862 44.4766 13.32 44.5383 13.3453C44.5735 13.3707 44.6175 13.3792 44.6616 13.3792C44.7672 13.3876 44.8818 13.4045 44.9963 13.413ZM47.4184 13.8018C47.4184 13.8103 47.4272 13.8187 47.4272 13.8187C47.4624 14.047 47.4977 14.2668 47.5241 14.4866C47.5329 14.5626 47.5417 14.6303 47.5946 14.6894C47.709 14.8331 47.8852 14.8162 47.9645 14.6641C47.9997 14.588 48.0085 14.5119 47.9909 14.4274C47.9381 14.1738 47.9116 13.9202 47.8588 13.675C47.8235 13.5229 47.7795 13.3792 47.7355 13.2439C47.709 13.1594 47.6474 13.1002 47.5417 13.0917C47.436 13.0748 47.3567 13.1256 47.3127 13.2016C47.2599 13.2693 47.2158 13.3369 47.1806 13.413C47.1189 13.5482 47.0661 13.6835 46.9957 13.8103C46.9868 13.8441 46.978 13.8695 46.9604 13.8948C46.9516 13.8779 46.9428 13.8695 46.9428 13.8695C46.8283 13.6581 46.7226 13.4468 46.6081 13.2439C46.5904 13.227 46.5817 13.2101 46.5729 13.1932C46.52 13.1171 46.4584 13.0748 46.3615 13.0748C46.2734 13.0833 46.2029 13.134 46.1589 13.2101C46.1413 13.2439 46.1413 13.2693 46.1325 13.3031C46.0972 13.5736 46.0532 13.8441 46.018 14.1146C46.0003 14.2668 45.9915 14.4189 45.9915 14.5711C45.9827 14.6049 45.9915 14.6472 46.0091 14.681C46.0268 14.7486 46.0796 14.7909 46.1501 14.7993C46.2381 14.8078 46.2998 14.7824 46.3262 14.7148C46.3526 14.6641 46.3615 14.6218 46.3703 14.5796C46.4055 14.4274 46.4319 14.2837 46.4584 14.14C46.476 14.0554 46.4848 13.9878 46.5112 13.8948C46.5288 13.9286 46.5464 13.954 46.5641 13.9794C46.6433 14.0808 46.7226 14.1822 46.8195 14.2668C46.9164 14.3344 46.9957 14.3259 47.0749 14.2499C47.0925 14.233 47.1013 14.2245 47.1189 14.2076C47.1982 14.0892 47.2951 13.9709 47.3743 13.8525C47.392 13.8356 47.4008 13.8187 47.4184 13.8018Z" fill="#8E8E93"/>
<path d="M27.1237 13.5778C27.0625 13.7385 27.0508 13.8542 27.0791 13.9504C27.1103 14.0813 27.1913 14.1241 27.3013 14.0908C28.3358 13.8453 30.6044 14.5422 31.4443 14.7364C31.6424 14.7772 31.8035 14.5318 31.6683 14.3118C31.4711 14.0987 29.2035 13.1864 28.3383 13.1367C27.9992 13.1183 27.3929 13.0348 27.1237 13.5778Z" fill="#8E8E93"/>
<path d="M35.9906 10.6261C36.1008 10.6871 36.1625 10.7454 36.1929 10.8105C36.2382 10.8959 36.2143 10.955 36.1382 10.9851C35.4543 11.3055 34.5443 12.6845 34.177 13.1602C34.088 13.2696 33.8826 13.206 33.8516 13.0261C33.8579 12.8226 34.6646 11.326 35.1148 10.9184C35.2917 10.7592 35.584 10.447 35.9906 10.6261Z" fill="#8E8E93"/>
<path d="M30.544 9.94639C30.6764 9.85057 30.8141 9.81699 30.8844 9.87926C31.9162 10.7262 32.4633 12.0673 32.8021 13.2951C32.8149 13.3237 32.8157 13.3647 32.8055 13.4076C32.8012 13.4442 32.7734 13.4828 32.7291 13.5127C32.6819 13.5458 32.6412 13.5558 32.622 13.5274C32.1698 12.937 29.5871 10.6402 30.544 9.94639Z" fill="#8E8E93"/>
<path d="M8.69524 24.6304C8.94253 24.4537 9.21137 24.3066 9.49586 24.1925C9.7935 24.1108 10.1107 24.1243 10.3997 24.2311C10.6885 24.3379 10.9334 24.532 11.0971 24.7841C11.2435 25.0356 11.3008 25.326 11.2604 25.6116C11.2199 25.897 11.084 26.1622 10.8729 26.3671C10.7093 26.5332 10.5235 26.6778 10.3205 26.7974C9.41582 27.3583 8.50308 27.8885 7.59039 28.4495C7.40363 28.5899 7.20551 28.7158 6.99793 28.826C6.68217 28.9771 6.32132 29.0176 5.97776 28.9404C5.6342 28.8633 5.32955 28.6733 5.11648 28.4034C4.95719 28.2123 4.82277 28.0033 4.71616 27.781C3.8515 26.0367 2.95481 24.3 2.12217 22.525C1.73787 21.7566 1.42563 20.8729 1.12139 20.02C0.989767 19.7721 0.964063 19.4848 1.04976 19.2191C1.13545 18.9534 1.32577 18.7302 1.58025 18.5971C1.83473 18.4639 2.13327 18.4314 2.4124 18.5062C2.69152 18.5811 2.92921 18.7575 3.0749 18.998C3.52271 19.5691 3.91911 20.1758 4.25981 20.8115C5.12448 22.3483 5.94912 23.8851 6.78176 25.3758C6.83024 25.4582 6.8837 25.5377 6.94188 25.614C7.56859 25.3611 8.15803 25.0304 8.69524 24.6304Z" fill="#8E8E93"/>
<path d="M17.6352 24.0933C15.6577 26.314 12.3432 25.7531 10.6779 22.8946C9.49295 20.866 9.28481 17.5157 11.8628 15.4025C12.4133 14.9601 13.0716 14.6588 13.7763 14.5265C14.6403 14.4077 15.5213 14.554 16.2935 14.9445C17.0656 15.3351 17.6894 15.9499 18.0756 16.7012C19.4847 19.1601 19.2845 22.2952 17.6352 24.0933ZM16.8346 18.9142C16.6245 18.3099 16.2031 17.7941 15.6417 17.4542C15.324 17.2369 14.938 17.1312 14.5487 17.155C14.1594 17.1788 13.7905 17.3306 13.5041 17.5848C12.3592 18.5607 12.119 20.8737 12.9516 22.2491C13.0578 22.4734 13.2136 22.6727 13.4084 22.8331C13.6032 22.9936 13.8321 23.1112 14.0792 23.1778C14.3263 23.2444 14.5855 23.2584 14.8389 23.2188C15.0922 23.1791 15.3334 23.0868 15.5457 22.9484C16.1663 22.4865 16.6216 21.8506 16.8483 21.1291C17.075 20.4074 17.0618 19.636 16.8107 18.9219L16.8346 18.9142Z" fill="#8E8E93"/>
<path d="M25.706 19.8815C25.5036 19.9233 25.2944 19.9258 25.0909 19.8888C24.8875 19.8518 24.6937 19.7762 24.5212 19.6663C24.3702 19.5834 24.2402 19.4695 24.1405 19.3326C24.041 19.1957 23.9742 19.0394 23.9451 18.8747C23.916 18.7101 23.9253 18.5414 23.9723 18.3807C24.0193 18.2199 24.1029 18.0712 24.2169 17.9451C24.4157 17.6917 24.6978 17.5103 25.0175 17.4303C25.8523 17.1977 26.7117 17.056 27.5795 17.0076C27.7702 16.9864 27.9634 17.0018 28.1477 17.0532C28.332 17.1046 28.5038 17.1907 28.653 17.3067C28.8021 17.4227 28.9257 17.5661 29.0163 17.7285C29.1069 17.8909 29.1628 18.069 29.1807 18.2525C29.4309 19.1534 29.4583 20.0981 29.2608 21.0111C28.5403 23.9618 26.0583 24.9761 23.2722 24.0309C22.4901 23.7782 21.8044 23.3074 21.3027 22.6785C20.6335 21.9212 20.1591 21.0237 19.9176 20.0582C19.7219 19.1985 19.7433 18.3063 19.9801 17.4562C20.2169 16.606 20.6621 15.8225 21.2786 15.1711C21.8637 14.4631 22.6231 13.906 23.4884 13.5498C24.0351 13.2605 24.6749 13.1783 25.2818 13.3192C25.4194 13.3558 25.5443 13.4271 25.6436 13.5256C25.743 13.6241 25.813 13.7464 25.8465 13.8797C25.88 14.0129 25.8757 14.1524 25.8341 14.2835C25.7925 14.4147 25.7152 14.5328 25.61 14.6255C25.4101 14.7992 25.1929 14.9537 24.9615 15.0866C24.2497 15.5216 23.6303 16.0822 23.1361 16.7387C22.8121 17.1635 22.589 17.6512 22.4825 18.1676C22.3759 18.684 22.3886 19.2166 22.5196 19.7278C22.7012 20.4249 23.1041 21.0506 23.6725 21.5182C25.4338 23.0551 27.7236 21.572 27.3233 19.4742C26.7389 19.6126 26.2265 19.7586 25.706 19.8815Z" fill="#8E8E93"/>
<path d="M36.4656 24.217C33.8637 25.7539 30.9014 24.217 30.2528 20.9897C29.7805 18.6845 30.6772 15.4571 33.8156 14.2277C34.4834 13.9717 35.2077 13.8819 35.9212 13.9664C36.7786 14.117 37.5651 14.5221 38.1698 15.1246C38.7745 15.727 39.167 16.4964 39.2918 17.3244C39.8202 20.0676 38.6193 22.9953 36.4656 24.217ZM37.3704 19.0456C37.3696 18.4073 37.1343 17.7896 36.7059 17.3013C36.4769 16.9993 36.1458 16.783 35.7691 16.689C35.3924 16.5952 34.9935 16.6296 34.6402 16.7865C33.2312 17.3705 32.2384 19.4913 32.5987 21.0512C32.6262 21.296 32.7091 21.5321 32.8415 21.7429C32.974 21.9538 33.1529 22.1343 33.3657 22.2719C33.5784 22.4095 33.8199 22.5008 34.0732 22.5395C34.3266 22.5781 34.5857 22.5632 34.8324 22.4958C35.5772 22.2461 36.2221 21.7794 36.6771 21.1608C37.1321 20.5423 37.3745 19.8028 37.3704 19.0456Z" fill="#8E8E93"/>
<path d="M41.9237 24.8609C41.8844 25.1421 41.7304 25.3969 41.4954 25.5691C41.2604 25.7413 40.9637 25.8169 40.6707 25.7792C40.3777 25.7415 40.1123 25.5936 39.9329 25.368C39.7534 25.1425 39.6747 24.8578 39.714 24.5766C39.7533 24.2953 39.9074 24.0406 40.1423 23.8684C40.3773 23.6962 40.6739 23.6206 40.9669 23.6583C41.26 23.696 41.5254 23.8439 41.7048 24.0694C41.8842 24.295 41.963 24.5797 41.9237 24.8609ZM41.2271 14.495C41.3794 14.2718 41.6028 14.1018 41.864 14.0104C42.1251 13.919 42.41 13.9111 42.6763 13.9878C42.9469 14.0528 43.186 14.2051 43.3537 14.4191C43.5213 14.6331 43.6071 14.8959 43.597 15.1635C43.5617 15.5927 43.4948 16.0189 43.3968 16.4391C43.1326 17.8606 42.8764 19.2822 42.5962 20.6884C42.4681 21.2494 42.3 21.7872 42.1158 22.3558C42.0518 22.5336 41.9447 22.6942 41.8036 22.8246C41.7159 22.9227 41.6038 22.9979 41.4777 23.0433C41.3516 23.0888 41.2156 23.1029 41.0824 23.0845C40.9491 23.0661 40.8227 23.0158 40.7151 22.9381C40.6075 22.8604 40.522 22.758 40.4666 22.6402C40.3714 22.4289 40.3197 22.2018 40.3144 21.9717C40.3144 21.0188 40.3144 20.0583 40.3785 19.0978C40.4873 17.727 40.7014 16.3657 41.019 15.0252C41.0564 14.8456 41.1268 14.6738 41.2271 14.518V14.495Z" fill="#8E8E93"/>
<path fill-rule="evenodd" clip-rule="evenodd" d="M5.31337 31.0376C5.21884 31.2401 5.19291 31.4659 5.23911 31.6832C5.26984 31.9697 5.33734 32.2514 5.44006 32.522C5.56832 32.8534 5.71184 33.1811 5.8888 33.585C5.9295 33.678 5.97202 33.775 6.01653 33.8771C6.25516 34.4243 6.5546 35.1235 6.95399 36.1356C7.06704 36.4231 7.16743 36.7129 7.26852 37.0048C7.30935 37.1227 7.35034 37.241 7.39229 37.3596C7.54266 37.7811 7.8014 38.1598 8.14437 38.46C8.29 38.625 8.48317 38.7452 8.69978 38.8053C8.92061 38.8666 9.15547 38.8627 9.37396 38.7942C9.59244 38.7255 9.78433 38.5954 9.92473 38.4207C10.0624 38.2494 10.1442 38.043 10.1601 37.8273C10.2494 37.4072 10.219 36.9716 10.0718 36.5666C9.83818 35.8942 9.5721 35.2207 9.26525 34.562L9.26384 34.5591C8.75906 33.5285 8.24596 32.5051 7.70857 31.4813L7.70455 31.4741C7.54724 31.2074 7.34279 30.9689 7.10041 30.7695C6.94305 30.5914 6.726 30.4714 6.4863 30.43C6.24149 30.3877 5.989 30.4303 5.77392 30.5502C5.57045 30.6617 5.40916 30.8323 5.31337 31.0376Z" fill="#8E8E93"/>
<path fill-rule="evenodd" clip-rule="evenodd" d="M13.0224 28.4985C12.2309 28.3018 11.4043 28.2731 10.6002 28.4145C9.97737 28.4734 9.36482 28.6113 8.93947 28.8844C8.72314 29.0234 8.54823 29.2019 8.45094 29.4287C8.35311 29.6568 8.34063 29.9177 8.42079 30.2084C8.56717 30.7408 8.75725 31.2584 8.94666 31.7744L8.97734 31.858L8.97808 31.8599C9.54839 33.3589 10.1241 34.8529 10.7051 36.3417C10.7729 36.5763 10.8687 36.8026 10.9906 37.0161L10.9929 37.0201C11.154 37.2853 11.3606 37.5225 11.604 37.7217C11.7257 37.8313 11.8762 37.9071 12.0395 37.941C12.2043 37.9751 12.3757 37.9652 12.535 37.9122C12.6944 37.8593 12.8356 37.7654 12.9431 37.6407C13.049 37.518 13.1182 37.3702 13.1437 37.213C13.2487 36.7858 13.2151 36.3379 13.0472 35.9295C12.9948 35.7921 12.9537 35.6517 12.9104 35.5038C12.896 35.4545 12.8814 35.4044 12.8659 35.3533C14.1958 34.8544 15.6109 34.1835 16.1085 32.6228C16.3033 32.0834 16.3195 31.4994 16.1549 30.9508C15.9901 30.4015 15.6521 29.9147 15.1873 29.5574C14.5548 29.0571 13.8159 28.6957 13.0224 28.4985ZM10.8285 30.4128C10.8547 30.4056 10.881 30.3988 10.9075 30.3926C11.7733 30.262 12.6591 30.436 13.4019 30.8826C13.7292 31.1011 13.8633 31.3439 13.8863 31.5774C13.9101 31.8179 13.8189 32.0785 13.6359 32.3291C13.2901 32.8023 12.6589 33.1811 12.0888 33.2517C11.6732 32.333 11.2511 31.3772 10.8285 30.4128Z" fill="#8E8E93"/>
<path d="M18.2989 26.8178C19.2414 26.4 20.409 26.3278 21.3226 26.6216C21.5527 26.6859 21.7523 26.825 21.8873 27.0152C22.0215 27.2041 22.0834 27.4318 22.0627 27.6595C22.0613 27.8073 22.0235 27.9527 21.9524 28.0838C21.8801 28.2174 21.7752 28.3322 21.6469 28.4186C21.5185 28.505 21.3703 28.5606 21.2149 28.5804C21.0594 28.6003 20.9012 28.584 20.7537 28.5328L20.7425 28.5289L20.732 28.5236C20.6565 28.4857 20.5763 28.4571 20.4934 28.4385L20.4882 28.4374C19.8455 28.2736 19.2393 28.5451 19.0178 28.8786C18.9122 29.0377 18.8991 29.1982 18.9871 29.3443C19.0813 29.5007 19.3123 29.6762 19.7798 29.8013C19.9084 29.8352 20.0402 29.8678 20.1739 29.9011C20.5436 29.9929 20.9278 30.0884 21.2993 30.2207L21.3007 30.2212C23.0146 30.8471 23.6528 32.1433 23.4343 33.3625C23.2181 34.5682 22.169 35.6654 20.5914 35.9242C20.0173 36.0464 19.4199 36.0226 18.8582 35.8552C18.2952 35.6874 17.7876 35.3811 17.386 34.9666L17.3756 34.9558C17.2488 34.7997 17.1635 34.6163 17.1257 34.4216C17.091 34.246 17.1093 34.0645 17.1784 33.8984C17.2472 33.7334 17.3635 33.5906 17.5136 33.4865C17.6721 33.3685 17.8632 33.2978 18.0632 33.283C18.2625 33.2683 18.462 33.3099 18.6371 33.4025C18.8119 33.4836 18.9745 33.587 19.1205 33.71L19.1232 33.7123C19.3815 33.9389 19.6939 33.998 19.9935 33.9433C20.2974 33.8878 20.5833 33.7152 20.7671 33.4861C20.9497 33.2585 21.023 32.9882 20.936 32.7257C20.8485 32.4614 20.5852 32.1652 20.0068 31.9176C19.8556 31.8559 19.6988 31.8062 19.5357 31.7579C19.4917 31.7448 19.447 31.7318 19.4017 31.7186C19.2812 31.6835 19.1571 31.6473 19.0354 31.6075C18.9516 31.58 18.8685 31.5541 18.7862 31.5283C18.5612 31.458 18.3418 31.3894 18.1307 31.2975C17.6713 31.1473 17.2743 30.8591 16.999 30.4753C16.7225 30.09 16.5834 29.6292 16.6023 29.1618C16.6038 28.0227 17.3513 27.2379 18.2989 26.8178Z" fill="#8E8E93"/>
<path d="M30.2489 26.6955C30.0661 26.6098 29.864 26.5692 29.6608 26.5772C29.4576 26.5852 29.2597 26.6416 29.0849 26.7415C28.9112 26.8406 28.7658 26.9794 28.6616 27.1456C28.566 27.2855 28.4999 27.4419 28.4669 27.6063C28.4339 27.7704 28.4347 27.9392 28.4692 28.103C28.5032 28.3135 28.541 28.5182 28.5782 28.7201C28.6399 29.0541 28.7 29.3807 28.7396 29.7137L28.741 29.7221C28.8312 30.2443 28.8784 30.7725 28.8827 31.3017L28.8831 31.3092C28.9139 31.8808 28.711 32.4412 28.3178 32.8716L28.3116 32.8792C28.1837 33.0366 28.0127 33.1567 27.8176 33.2261C27.6226 33.2955 27.4114 33.3114 27.2075 33.2721C27.0036 33.2329 26.8151 33.1399 26.6631 33.0037C26.5111 32.8675 26.4015 32.6928 26.3467 32.5003C26.2299 32.0945 26.1623 31.6771 26.1451 31.2564L26.3447 28.2073C26.3476 28.1675 26.351 28.1266 26.3544 28.0854C26.362 27.9927 26.3698 27.8984 26.373 27.8104C26.3777 27.681 26.3737 27.5479 26.3422 27.4218C26.3101 27.2931 26.2489 27.1705 26.1404 27.0662C26.033 26.9629 25.8879 26.8867 25.7055 26.8349C25.3754 26.7432 25.0964 26.7461 24.8639 26.8408C24.6312 26.9355 24.4718 27.1113 24.359 27.3145C24.2471 27.5159 24.1752 27.7544 24.1208 27.9932C24.0805 28.1704 24.048 28.3565 24.0172 28.5336C24.0065 28.5946 23.9961 28.6545 23.9856 28.7127L23.9853 28.7145C23.8204 29.6857 23.7713 30.6718 23.839 31.6537C23.8516 32.1844 23.9669 32.7081 24.1791 33.1983C24.4185 33.8308 24.852 34.3787 25.4225 34.7699C25.9942 35.1619 26.6765 35.3779 27.3789 35.3893C28.0814 35.4007 28.7709 35.207 29.3561 34.8338C29.9404 34.4613 30.3932 33.9273 30.6546 33.3025C31.0203 32.5067 31.1921 31.6411 31.1566 30.7719C31.1352 30.1374 31.0992 29.4979 31.0634 28.8617C31.0458 28.5496 31.0283 28.2382 31.0126 27.9287C31.0046 27.6183 30.898 27.3177 30.7069 27.0672C30.5887 26.9088 30.4313 26.7811 30.2489 26.6955Z" fill="#8E8E93"/>
<path d="M36.7175 31.4767C36.699 31.4994 36.6794 31.5228 36.659 31.5471C36.5104 30.724 36.3726 29.9012 36.2346 29.0771C36.1851 28.7815 36.1354 28.4845 36.0853 28.1885L36.0797 28.1555L36.0614 28.1269C36.027 28.0732 36.0236 28.0205 36.0236 27.9082V27.8952L36.0215 27.8824C35.9842 27.6505 35.8748 27.4346 35.7079 27.2631C35.5413 27.0921 35.3251 26.973 35.0872 26.9214C34.8497 26.8652 34.6001 26.8775 34.3699 26.957C34.1403 27.0363 33.9401 27.1788 33.7944 27.3667C33.6733 27.5108 33.574 27.6707 33.4996 27.8415C33.3307 28.2096 33.1604 28.5785 32.9896 28.9485L32.9866 28.9549C32.5602 29.8785 32.1309 30.8082 31.7141 31.7453L31.7128 31.7484C31.4569 32.356 31.2457 32.9962 31.0352 33.6345C30.9932 33.7619 30.9511 33.8892 30.9088 34.0162C30.8328 34.2176 30.7995 34.4316 30.8109 34.6455C30.7971 34.8369 30.8448 35.0279 30.9478 35.1926C31.0528 35.3607 31.2102 35.4929 31.3976 35.5708C31.5962 35.6543 31.8182 35.6721 32.0286 35.6212C32.2385 35.5704 32.4248 35.4541 32.5584 35.2906C32.7289 35.0893 32.8756 34.8697 32.9953 34.637C33.3484 33.9438 33.6859 33.2421 34.0218 32.5435C34.1518 32.2733 34.2781 32.0312 34.4217 31.7677C34.4316 31.8002 34.4417 31.8319 34.4521 31.8636C34.6027 32.5 34.8569 33.1095 35.2053 33.6699C35.2712 33.7886 35.3631 33.8923 35.4745 33.974C35.5873 34.0566 35.7175 34.1146 35.856 34.1441C35.9946 34.1735 36.1381 34.1737 36.2767 34.1445C36.4151 34.1154 36.5457 34.0573 36.6585 33.975L36.8819 33.8145L38.6158 32.4129L38.5132 33.04C38.3725 33.902 38.2328 34.7568 38.0844 35.6119C37.9874 35.9909 37.9875 36.3867 38.0849 36.7656C38.127 36.9788 38.2344 37.175 38.3934 37.3294C38.5538 37.485 38.7591 37.5907 38.9828 37.6329C39.2065 37.675 39.4383 37.6517 39.648 37.5658C39.8547 37.4813 40.0305 37.3398 40.1533 37.1596C40.4392 36.8191 40.6171 36.407 40.666 35.9722C40.7396 35.3582 40.8227 34.7358 40.9059 34.1136C41.0017 33.3965 41.0976 32.6795 41.1785 31.9763L41.1787 31.9742C41.2566 31.2044 41.2943 30.4315 41.2917 29.6581C41.3087 29.4137 41.2453 29.1703 41.1102 28.9622C40.9747 28.7534 40.7739 28.591 40.5366 28.4982C40.2898 28.3905 40.0135 28.3617 39.7484 28.4161C39.485 28.4702 39.2466 28.6034 39.0677 28.7965C38.7479 29.0804 38.4479 29.3841 38.1696 29.7058L38.1677 29.708C37.8639 30.0714 37.5621 30.4418 37.2624 30.8099C37.0801 31.0337 36.8983 31.2569 36.7175 31.4767Z" fill="#8E8E93"/>
</g>
<defs>
<clipPath id="clip0_317_2270">
<rect width="47" height="29" fill="white" transform="translate(1 9.84766)"/>
</clipPath>
</defs>
</svg>
