<svg width="53" height="48" viewBox="0 0 53 48" fill="none" xmlns="http://www.w3.org/2000/svg">
<g clip-path="url(#clip0_317_2290)">
<path d="M13.0101 13.8477C10.9794 13.8477 9.03186 14.6544 7.59593 16.0903L2.90963 20.7766C1.47369 22.2125 0.666992 24.1601 0.666992 26.1908C0.666992 30.4196 4.09509 33.8477 8.32386 33.8477C10.3546 33.8477 12.3021 33.0409 13.7381 31.605L16.9796 28.3635C16.9796 28.3634 16.9797 28.3635 16.9796 28.3635L26.4243 18.9187C27.1101 18.2329 28.0403 17.8477 29.0101 17.8477C30.6339 17.8477 32.0105 18.9059 32.4877 20.3704L35.4685 17.3896C34.1087 15.2599 31.7243 13.8477 29.0101 13.8477C26.9794 13.8477 25.0319 14.6544 23.5959 16.0903L10.9097 28.7766C10.2239 29.4624 9.29373 29.8477 8.32386 29.8477C6.30422 29.8477 4.66699 28.2105 4.66699 26.1908C4.66699 25.2209 5.05227 24.2908 5.73806 23.605L10.4243 18.9187C11.1101 18.2329 12.0403 17.8477 13.0101 17.8477C14.6339 17.8477 16.0105 18.906 16.4877 20.3705L19.4685 17.3897C18.1087 15.2599 15.7244 13.8477 13.0101 13.8477Z" fill="#8E8E93"/>
<path d="M26.9101 28.7766C26.2243 29.4624 25.2941 29.8477 24.3243 29.8477C22.7007 29.8477 21.3243 28.7897 20.8469 27.3255L17.8662 30.3061C19.2261 32.4356 21.6103 33.8477 24.3243 33.8477C26.355 33.8477 28.3025 33.0409 29.7385 31.605L42.4247 18.9187C43.1105 18.2329 44.0407 17.8477 45.0105 17.8477C47.0302 17.8477 48.6674 19.4849 48.6674 21.5045C48.6674 22.4744 48.2821 23.4045 47.5963 24.0903L42.9101 28.7766C42.2243 29.4624 41.2941 29.8477 40.3243 29.8477C38.7006 29.8477 37.3241 28.7895 36.8467 27.3251L33.8661 30.3059C35.2259 32.4355 37.6101 33.8477 40.3243 33.8477C42.355 33.8477 44.3025 33.0409 45.7385 31.605L50.4247 26.9187C51.8607 25.4828 52.6674 23.5353 52.6674 21.5045C52.6674 17.2757 49.2393 13.8477 45.0105 13.8477C42.9798 13.8477 41.0323 14.6544 39.5963 16.0903L26.9101 28.7766Z" fill="#8E8E93"/>
</g>
<defs>
<clipPath id="clip0_317_2290">
<rect width="52" height="20" fill="white" transform="translate(0.666992 13.8477)"/>
</clipPath>
</defs>
</svg>
