<svg width="56" height="48" viewBox="0 0 56 48" fill="none" xmlns="http://www.w3.org/2000/svg">
<g clip-path="url(#clip0_317_2266)">
<path d="M55.6627 19.5173C55.6684 19.4756 55.6684 19.4335 55.6627 19.3918C55.6681 19.3578 55.6681 19.3231 55.6627 19.2891L55.2553 16.3564C55.1965 16.0056 55.0393 15.6776 54.8014 15.4093L54.7315 15.3294L54.6035 15.2039L47.5499 9.24733L47.7478 9.44133C47.5859 9.25145 47.3827 9.09957 47.1531 8.99688C46.9234 8.89419 46.6732 8.84329 46.4209 8.84795H44.2792C43.9309 8.84119 43.5906 8.94974 43.3131 9.15606C43.0217 8.95098 42.6708 8.84299 42.3121 8.84795H40.1704C39.8895 8.84349 39.6124 8.91183 39.3671 9.04608C39.1218 9.18034 38.9171 9.37574 38.7737 9.61249C38.5524 9.95064 38.4693 10.3581 38.5408 10.7536L38.8086 12.6022C38.6312 12.5036 38.4305 12.4525 38.2266 12.4539H27.8557C27.4836 12.4561 27.1201 12.5631 26.8081 12.7619C26.5065 12.9471 26.2643 13.2121 26.1098 13.5265L25.3066 12.8532C24.9905 12.5665 24.5733 12.4111 24.1427 12.4196H7.87053C7.49711 12.4263 7.132 12.5286 6.81136 12.7163C6.37268 12.968 6.0512 13.3773 5.91508 13.8574L0.747109 30.8029C0.650547 31.0821 0.641048 31.3832 0.719828 31.6678C0.798609 31.9522 0.962101 32.2074 1.18942 32.4004C1.24865 32.4496 1.31084 32.4954 1.37566 32.5373C1.37566 32.5373 1.27088 32.4688 1.21268 32.4118L8.2663 38.3798C8.56469 38.6491 8.9548 38.7997 9.36035 38.802H25.7606C26.1351 38.7925 26.5005 38.6862 26.8198 38.4939C27.0004 38.3971 27.1619 38.2696 27.297 38.1173L27.3552 38.0374L27.4483 37.9234L27.5181 37.7978L28.2864 38.4483C28.5805 38.7069 28.9621 38.8492 29.3572 38.8477H45.7923C46.1664 38.8354 46.5311 38.7294 46.8515 38.5396C47.028 38.4369 47.1887 38.3101 47.3288 38.163L47.3869 38.0831L47.48 37.969C47.5295 37.8968 47.5724 37.8205 47.608 37.7407C47.6461 37.6716 47.6772 37.599 47.7012 37.524L52.4152 22.0506V21.9136C52.421 21.8605 52.421 21.807 52.4152 21.7539V21.6512C52.4208 21.6172 52.4208 21.5825 52.4152 21.5485C52.4205 21.4763 52.4205 21.4039 52.4152 21.3316H53.9284C54.06 21.3435 54.1925 21.3435 54.3241 21.3316H54.4289C54.5141 21.3067 54.5961 21.2722 54.6733 21.229H54.7897L54.9992 21.0692L55.0923 21.0007L55.2553 20.7953V20.7269L55.3717 20.5329C55.3652 20.4952 55.3652 20.4565 55.3717 20.4188C55.3655 20.4003 55.3655 20.3803 55.3717 20.3617C55.3964 20.2948 55.4159 20.2261 55.4299 20.1563C55.4245 20.1338 55.4245 20.1103 55.4299 20.0878C55.4242 20.0539 55.4242 20.0191 55.4299 19.9852C55.4299 19.9852 55.6627 19.5401 55.6627 19.5173Z" fill="black"/>
<path d="M24.6192 13.7196C24.681 13.7744 24.7241 13.8464 24.7429 13.926C24.7617 14.0055 24.755 14.0888 24.724 14.1646L19.5677 31.0986C19.5027 31.2835 19.3699 31.4381 19.1952 31.5323C19.053 31.6255 18.8885 31.6806 18.7179 31.692H2.32942C2.18946 31.6854 2.05687 31.6286 1.95695 31.5323C1.89751 31.4784 1.8558 31.4083 1.83713 31.3311C1.81847 31.2539 1.82373 31.173 1.8522 31.0986L7.02017 14.1646C7.07972 13.9774 7.20838 13.8187 7.381 13.7196C7.5255 13.6331 7.68926 13.5821 7.85822 13.5712H24.2467C24.3856 13.5725 24.5187 13.6256 24.6192 13.7196ZM16.0641 27.6867L19.1486 17.5765H10.5121L7.43918 27.6867H16.0641ZM40.2628 13.8907C40.3187 13.9544 40.3886 14.005 40.4672 14.0386C40.5458 14.0721 40.6311 14.0879 40.7168 14.0847H42.8468C42.9279 14.0855 43.0078 14.066 43.0792 14.0281C43.1504 13.9901 43.2106 13.935 43.2542 13.8679C43.292 13.8155 43.3187 13.7562 43.3327 13.6934C43.3467 13.6307 43.3477 13.5659 43.3356 13.5028L42.9166 10.4903C42.8767 10.3508 42.8051 10.2221 42.7072 10.1137C42.6512 10.05 42.5813 9.99946 42.5027 9.96587C42.4241 9.93229 42.3388 9.91651 42.2532 9.9197H40.1232C40.042 9.91892 39.9621 9.93842 39.8908 9.97636C39.8195 10.0143 39.7592 10.0694 39.7158 10.1365C39.6343 10.2963 39.5994 10.399 39.6343 10.4903L40.0649 13.5028C40.087 13.6495 40.1564 13.7854 40.2628 13.8907ZM47.0254 10.4674C46.9855 10.328 46.9138 10.1993 46.8159 10.0909C46.7623 10.0274 46.6945 9.97688 46.6178 9.94324C46.5411 9.9096 46.4576 9.89373 46.3736 9.89687H44.2319C44.1521 9.89465 44.0732 9.91362 44.0036 9.95179C43.9339 9.98996 43.8761 10.0459 43.8362 10.1137C43.7587 10.2149 43.7252 10.3421 43.7431 10.4674L44.1737 13.4799C44.2007 13.6251 44.2693 13.7597 44.3716 13.8679C44.4285 13.9304 44.4986 13.9801 44.5769 14.0135C44.6553 14.047 44.74 14.0635 44.8255 14.0619H46.9672C47.0468 14.0629 47.1252 14.0435 47.1946 14.0054C47.2641 13.9673 47.3222 13.9121 47.363 13.8451C47.4035 13.7941 47.4317 13.7347 47.4459 13.6716C47.46 13.6084 47.4595 13.5429 47.4444 13.4799L47.0254 10.4674ZM38.3888 15.0319L38.1793 13.5484H27.855C27.6929 13.5572 27.5361 13.6084 27.401 13.6968C27.3153 13.7426 27.2407 13.8061 27.1824 13.8829C27.1242 13.9598 27.0836 14.0481 27.0636 14.1418L26.2022 16.9717C26.1678 17.0424 26.1561 17.1218 26.1685 17.1992C26.181 17.2766 26.2171 17.3484 26.272 17.4054C26.3702 17.4958 26.4983 17.5485 26.6329 17.5537H39.1804L36.0959 27.6639H23.5833C23.4219 27.6675 23.2648 27.7149 23.1294 27.8008C22.9648 27.9033 22.8445 28.0618 22.7918 28.2459L21.9188 31.0758C21.8904 31.1484 21.8829 31.2273 21.8972 31.3038C21.9117 31.3804 21.9473 31.4515 22.0003 31.5094C22.0954 31.6059 22.2245 31.6631 22.3611 31.6692H38.7962C38.9662 31.6548 39.13 31.6 39.2734 31.5094C39.4453 31.4148 39.5742 31.2599 39.6343 31.0758L44.3599 15.6024H39.0406C38.9562 15.604 38.8724 15.5887 38.7944 15.5573C38.7163 15.5259 38.6456 15.4791 38.5867 15.4198C38.4905 15.3163 38.4224 15.1908 38.3888 15.0547V15.0319Z" fill="white"/>
</g>
<defs>
<clipPath id="clip0_317_2266">
<rect width="55" height="30" fill="white" transform="translate(0.666992 8.84766)"/>
</clipPath>
</defs>
</svg>
