<svg width="40" height="34" viewBox="0 0 40 34" fill="none" xmlns="http://www.w3.org/2000/svg">
<path fill-rule="evenodd" clip-rule="evenodd" d="M0.657003 15.1009C2.82569 6.38428 10.6532 0.265625 19.6356 0.265625C28.618 0.265625 36.4455 6.38428 38.6141 15.1009H36.8999C34.008 15.0584 31.1754 15.9226 28.7999 17.5724C28.6628 17.6716 28.5196 17.7623 28.3713 17.8438H28.1713C28.0229 17.7623 27.8798 17.6716 27.7427 17.5724C22.8406 14.276 16.4306 14.276 11.5284 17.5724C11.3913 17.6716 11.2482 17.7623 11.0999 17.8438H10.8999C10.7515 17.7623 10.6084 17.6716 10.4713 17.5724C8.09576 15.9226 5.26317 15.0584 2.37129 15.1009H0.657003ZM33.8141 24.0588C34.6942 23.3735 35.7848 23.015 36.8999 23.0445H39.1999V18.4588H36.8999C34.9359 18.4351 33.0168 19.0464 31.4284 20.2017C29.5937 21.5543 27.0918 21.5543 25.257 20.2017C21.9213 17.8796 17.4927 17.8796 14.157 20.2017C12.3222 21.5543 9.82036 21.5543 7.98557 20.2017C6.37757 19.0316 4.431 18.4195 2.44272 18.4588H0.0712891V23.0445H2.37129C3.4863 23.015 4.57699 23.3735 5.457 24.0588C8.78692 26.3826 13.2128 26.3826 16.5427 24.0588C17.4239 23.3756 18.5138 23.0173 19.6284 23.0445C20.7438 23.0126 21.8353 23.3713 22.7141 24.0588C26.0498 26.3809 30.4785 26.3809 33.8141 24.0588ZM36.8999 31.2438C35.7848 31.2142 34.6942 31.5727 33.8141 32.2581C30.4785 34.5801 26.0498 34.5801 22.7141 32.2581C21.8353 31.5706 20.7438 31.2118 19.6284 31.2438C18.5138 31.2166 17.4239 31.5748 16.5427 32.2581C13.2128 34.5818 8.78692 34.5818 5.457 32.2581C4.57699 31.5727 3.4863 31.2142 2.37129 31.2438H0.0712891V26.6581H2.44272C4.431 26.6188 6.37757 27.2308 7.98557 28.4009C9.82036 29.7536 12.3222 29.7536 14.157 28.4009C17.4927 26.0789 21.9213 26.0789 25.257 28.4009C27.0918 29.7536 29.5937 29.7536 31.4284 28.4009C33.0168 27.2456 34.9359 26.6343 36.8999 26.6581H39.1999V31.2438H36.8999Z" fill="#202124"/>
</svg>
